<svg width="272" height="330" viewBox="403 1083 272 330" fill="none" xmlns="http://www.w3.org/2000/svg">
<path d="M414.21 1083.42C447.158 1083.06 480.108 1082.94 513.058 1083.07C537.817 1083.07 575.216 1081.24 597.97 1087.29C615.417 1092.01 631.362 1101.13 644.279 1113.77C655.861 1124.91 672.136 1148.75 673.979 1164.7L674.881 1167.7C682.138 1196.78 677.413 1227.55 661.767 1253.12C646.547 1278.02 621.977 1295.79 593.557 1302.44C582.307 1305.02 571.258 1305.33 559.765 1305L484.818 1305.26C485.01 1296.6 484.092 1242.03 485.941 1238.85L487.679 1238.79C516.247 1235.11 554.052 1242.45 581.807 1236.7C612.092 1230.43 622.583 1185.43 600.636 1163.43C594.643 1157.41 587.089 1153.18 578.824 1151.22C568.409 1148.72 494.966 1149.73 479.564 1149.61C472.238 1142.57 463.017 1133.9 456.728 1126.2C451.527 1121.62 449.494 1119.51 445.009 1114.21C434.443 1104.27 424.441 1093.02 414.21 1083.42Z" fill="url(#paint0_linear_packmetrix)"/>
<path d="M403.921 1413.24C405.231 1313.88 403.109 1214.03 404.13 1114.61C404.176 1110.16 403.521 1101.95 404.986 1098.14L406.335 1098.16L408.088 1100.38C428.119 1120.18 448.321 1142.71 468.255 1161.87L468.431 1250.17C468.44 1265.07 468.991 1284.8 468.071 1299.19C468.956 1313.74 468.313 1332.39 468.398 1347.42C446.896 1368.25 425.306 1391.83 403.921 1413.24Z" fill="#c4a84f"/>
<defs>
<linearGradient id="paint0_linear_packmetrix" x1="501.643" y1="1201.56" x2="636.889" y2="1104.87" gradientUnits="userSpaceOnUse">
<stop stop-color="#e8c97b"/>
<stop offset="1" stop-color="#c4a84f"/>
</linearGradient>
</defs>
</svg>
