<svg width="272" height="330" viewBox="0 0 272 330" fill="none" xmlns="http://www.w3.org/2000/svg">
<defs>
<linearGradient id="paint0_linear_packmetrix" x1="98.643" y1="118.56" x2="233.889" y2="21.87" gradientUnits="userSpaceOnUse">
<stop stop-color="#e8c97b"/>
<stop offset="1" stop-color="#c4a84f"/>
</linearGradient>
</defs>
<path d="M11.21 0.42C44.158 0.06 77.108 -0.06 110.058 0.07C134.817 0.07 172.216 -1.76 194.97 4.29C212.417 9.01 228.362 18.13 241.279 30.77C252.861 41.91 269.136 65.75 270.979 81.7L271.881 84.7C279.138 113.78 274.413 144.55 258.767 170.12C243.547 195.02 218.977 212.79 190.557 219.44C179.307 222.02 168.258 222.33 156.765 222L81.818 222.26C82.01 213.6 81.092 159.03 82.941 155.85L84.679 155.79C113.247 152.11 151.052 159.45 178.807 153.7C209.092 147.43 219.583 102.43 197.636 80.43C191.643 74.41 184.089 70.18 175.824 68.22C165.409 65.72 91.966 66.73 76.564 66.61C69.238 59.57 60.017 50.9 53.728 43.2C48.527 38.62 46.494 36.51 42.009 31.21C31.443 21.27 21.441 10.02 11.21 0.42Z" fill="url(#paint0_linear_packmetrix)"/>
<path d="M0.921 330.24C2.231 230.88 0.109 131.03 1.13 31.61C1.176 27.16 0.521 18.95 1.986 15.14L3.335 15.16L5.088 17.38C25.119 37.18 45.321 59.71 65.255 78.87L65.431 167.17C65.44 182.07 65.991 201.8 65.071 216.19C65.956 230.74 65.313 249.39 65.398 264.42C43.896 285.25 22.306 308.83 0.921 330.24Z" fill="#c4a84f"/>
</svg>
